<svg width="18" height="17" viewBox="0 0 18 17" fill="none" xmlns="http://www.w3.org/2000/svg">
<path fill-rule="evenodd" clip-rule="evenodd" d="M9.00802 14.3305L9.49089 13.7864C10.0388 13.1589 10.5316 12.5635 10.9701 11.9972L11.3321 11.5197C12.8434 9.48343 13.5995 7.86725 13.5995 6.67271C13.5995 4.12294 11.544 2.05603 9.00802 2.05603C6.47202 2.05603 4.4166 4.12294 4.4166 6.67271C4.4166 7.86725 5.17265 9.48343 6.684 11.5197L7.04595 11.9972C7.67149 12.7987 8.32594 13.5765 9.00802 14.3305Z" stroke="white" stroke-linecap="round" stroke-linejoin="round"/>
<path d="M9.00802 8.56057C10.0646 8.56057 10.9211 7.70404 10.9211 6.64747C10.9211 5.5909 10.0646 4.73438 9.00802 4.73438C7.95145 4.73438 7.09492 5.5909 7.09492 6.64747C7.09492 7.70404 7.95145 8.56057 9.00802 8.56057Z" stroke="white" stroke-linecap="round" stroke-linejoin="round"/>
</svg>
