<svg width="30" height="30" viewBox="0 0 30 30" fill="none" xmlns="http://www.w3.org/2000/svg">
<path d="M25.9875 8.16327L15.675 2.51718C15.468 2.40394 15.2359 2.34459 15 2.34459C14.7641 2.34459 14.532 2.40394 14.325 2.51718L4.0125 8.16327C3.79127 8.28432 3.60666 8.46263 3.47801 8.67952C3.34936 8.89641 3.2814 9.14391 3.28125 9.39609V20.6039C3.2814 20.8561 3.34936 21.1036 3.47801 21.3205C3.60666 21.5374 3.79127 21.7157 4.0125 21.8367L14.325 27.4828C14.5318 27.5966 14.764 27.6562 15 27.6562C15.236 27.6562 15.4682 27.5966 15.675 27.4828L25.9875 21.8367C26.2087 21.7157 26.3933 21.5374 26.522 21.3205C26.6506 21.1036 26.7186 20.8561 26.7188 20.6039V9.39609C26.7186 9.14391 26.6506 8.89641 26.522 8.67952C26.3933 8.46263 26.2087 8.28432 25.9875 8.16327ZM14.775 3.33984C14.8438 3.30145 14.9212 3.2813 15 3.2813C15.0788 3.2813 15.1562 3.30145 15.225 3.33984L25.391 8.90624L20.918 11.3543C20.8967 11.3367 20.874 11.321 20.85 11.3074L10.5375 5.66132L14.775 3.33984ZM15 14.5898L4.60898 8.90624L9.55781 6.1957L19.9488 11.884L15 14.5898ZM4.4625 21.0117C4.38887 20.9714 4.32741 20.9121 4.28454 20.84C4.24166 20.7678 4.21894 20.6855 4.21875 20.6016V9.76054L14.5312 15.4043V26.5266L4.4625 21.0117ZM25.5375 21.0117L15.4688 26.5195V15.4043L20.1562 12.8391V17.8125C20.1562 17.9368 20.2056 18.056 20.2935 18.144C20.3815 18.2319 20.5007 18.2812 20.625 18.2812C20.7493 18.2812 20.8685 18.2319 20.9565 18.144C21.0444 18.056 21.0938 17.9368 21.0938 17.8125V12.3258L25.7812 9.76054V20.6039C25.7811 20.6878 25.7583 20.7702 25.7155 20.8423C25.6726 20.9145 25.6111 20.9738 25.5375 21.0141V21.0117Z" fill="#5E36FF"/>
</svg>
