<svg width="18" height="19" viewBox="0 0 18 19" fill="none" xmlns="http://www.w3.org/2000/svg">
<path d="M15.6354 11.6418L12.323 10.1575L12.3138 10.1533C12.1419 10.0798 11.9543 10.0502 11.768 10.0674C11.5818 10.0846 11.4028 10.148 11.2472 10.2517C11.2289 10.2638 11.2113 10.277 11.1945 10.2911L9.48305 11.7501C8.39883 11.2235 7.27946 10.1125 6.75282 9.04237L8.21391 7.30495C8.22798 7.28737 8.24133 7.26979 8.25399 7.25081C8.35554 7.09563 8.41716 6.91775 8.43335 6.733C8.44954 6.54826 8.41981 6.36238 8.3468 6.1919V6.18346L6.85829 2.86541C6.76178 2.64271 6.59583 2.45719 6.38522 2.33655C6.1746 2.21591 5.93062 2.16662 5.68969 2.19604C4.73694 2.32141 3.8624 2.78931 3.22941 3.51236C2.59643 4.2354 2.24828 5.16413 2.25001 6.1251C2.25001 11.7079 6.79219 16.2501 12.375 16.2501C13.336 16.2518 14.2647 15.9037 14.9878 15.2707C15.7108 14.6377 16.1787 13.7632 16.3041 12.8104C16.3335 12.5696 16.2844 12.3256 16.1638 12.115C16.0433 11.9044 15.858 11.7384 15.6354 11.6418ZM12.375 15.1251C9.98886 15.1225 7.70119 14.1734 6.01392 12.4862C4.32666 10.7989 3.37761 8.51125 3.37501 6.1251C3.37236 5.43849 3.61973 4.7744 4.07091 4.25683C4.5221 3.73927 5.14625 3.40363 5.8268 3.3126C5.82653 3.31541 5.82653 3.31823 5.8268 3.32104L7.30337 6.62573L5.85001 8.36526C5.83525 8.38223 5.82185 8.40033 5.80993 8.4194C5.70412 8.58176 5.64205 8.76871 5.62973 8.96211C5.61741 9.15552 5.65526 9.34883 5.73962 9.52331C6.37665 10.8262 7.68938 12.1291 9.00633 12.7654C9.18209 12.849 9.37652 12.8855 9.57062 12.8715C9.76473 12.8574 9.95187 12.7933 10.1138 12.6853C10.1318 12.6731 10.1492 12.66 10.1658 12.6459L11.8751 11.1876L15.1798 12.6677H15.1875C15.0976 13.3492 14.7624 13.9746 14.2448 14.4269C13.7271 14.8792 13.0624 15.1274 12.375 15.1251Z" fill="#5E36FF"/>
</svg>
