<svg width="18" height="18" viewBox="0 0 18 18" fill="none" xmlns="http://www.w3.org/2000/svg">
<path fill-rule="evenodd" clip-rule="evenodd" d="M9 15.8914L9.54086 15.282C10.1546 14.5791 10.7066 13.9123 11.1977 13.278L11.6031 12.7431C13.296 10.4623 14.1429 8.65197 14.1429 7.31397C14.1429 4.45797 11.8406 2.14282 9 2.14282C6.15943 2.14282 3.85715 4.45797 3.85715 7.31397C3.85715 8.65197 4.704 10.4623 6.39686 12.7431L6.80229 13.278C7.50295 14.1757 8.23601 15.0469 9 15.8914Z" stroke="#5E36FF" stroke-linecap="round" stroke-linejoin="round"/>
<path d="M9 9.42854C10.1835 9.42854 11.1429 8.46915 11.1429 7.28568C11.1429 6.10221 10.1835 5.14282 9 5.14282C7.81654 5.14282 6.85715 6.10221 6.85715 7.28568C6.85715 8.46915 7.81654 9.42854 9 9.42854Z" stroke="#5E36FF" stroke-linecap="round" stroke-linejoin="round"/>
</svg>
