<svg width="18" height="17" viewBox="0 0 18 17" fill="none" xmlns="http://www.w3.org/2000/svg">
<g clip-path="url(#clip0_11_201)">
<path d="M6.83186 15.6339C6.49707 15.6339 6.20402 15.525 5.9527 15.3072C5.70138 15.0893 5.55363 14.8132 5.50944 14.4789L4.42136 6.34344C4.39904 6.14257 4.45484 5.96691 4.58876 5.81648C4.72268 5.66605 4.89007 5.59061 5.09095 5.59016H12.9251C13.1259 5.59016 13.2933 5.6656 13.4273 5.81648C13.5612 5.96736 13.617 6.14301 13.5947 6.34344L12.5066 14.4789C12.4619 14.8137 12.314 15.09 12.0626 15.3078C11.8113 15.5257 11.5185 15.6344 11.1842 15.6339H6.83186ZM6.83186 14.2947H11.1842L12.1551 6.92933H5.84423L6.83186 14.2947ZM9.00801 10.9468C9.566 10.9468 10.0403 10.7515 10.4309 10.3609C10.8215 9.97035 11.0168 9.49606 11.0168 8.93808V8.26849C11.0168 8.07878 10.9525 7.91964 10.8239 7.79108C10.6954 7.66252 10.5364 7.59846 10.3472 7.59891C10.1575 7.59891 9.99832 7.66319 9.86976 7.79175C9.7412 7.92031 9.67715 8.07922 9.67759 8.26849V8.93808C9.67759 9.12779 9.61331 9.28693 9.48475 9.41549C9.35619 9.54405 9.19728 9.60811 9.00801 9.60766C8.81829 9.60766 8.65916 9.54338 8.5306 9.41482C8.40204 9.28626 8.33798 9.12735 8.33843 8.93808V8.26849C8.33843 8.07878 8.27415 7.91964 8.14559 7.79108C8.01703 7.66252 7.85811 7.59846 7.66884 7.59891C7.47913 7.59891 7.31999 7.66319 7.19143 7.79175C7.06287 7.92031 6.99881 8.07922 6.99926 8.26849V8.93808C6.99926 9.49606 7.19455 9.97035 7.58514 10.3609C7.97573 10.7515 8.45002 10.9468 9.00801 10.9468ZM11.0168 4.92058C10.7378 4.92058 10.5005 4.82282 10.305 4.6273C10.1095 4.43178 10.0119 4.19475 10.0124 3.9162C10.0124 3.63721 10.1101 3.39995 10.3057 3.20443C10.5012 3.00892 10.7382 2.91138 11.0168 2.91183C11.2958 2.91183 11.533 3.00959 11.7285 3.2051C11.924 3.40062 12.0216 3.63765 12.0211 3.9162C12.0211 4.19519 11.9234 4.43245 11.7279 4.62797C11.5323 4.82349 11.2953 4.92102 11.0168 4.92058ZM7.66884 4.25099C7.20013 4.25099 6.80396 4.08918 6.48033 3.76554C6.1567 3.44191 5.99488 3.04574 5.99488 2.57703C5.99488 2.10833 6.1567 1.71216 6.48033 1.38852C6.80396 1.06489 7.20013 0.903076 7.66884 0.903076C8.13755 0.903076 8.53372 1.06489 8.85735 1.38852C9.18098 1.71216 9.3428 2.10833 9.3428 2.57703C9.3428 3.04574 9.18098 3.44191 8.85735 3.76554C8.53372 4.08918 8.13755 4.25099 7.66884 4.25099Z" fill="white"/>
</g>
<defs>
<clipPath id="clip0_11_201">
<rect width="16.07" height="16.07" fill="white" transform="translate(0.973007 0.233521)"/>
</clipPath>
</defs>
</svg>
