<svg width="18" height="17" viewBox="0 0 18 17" fill="none" xmlns="http://www.w3.org/2000/svg">
<path d="M13.0438 9.32577C13.5004 9.32577 13.9384 9.50717 14.2613 9.83007C14.5842 10.153 14.7656 10.5909 14.7656 11.0476V11.4579C14.7656 13.5109 12.3493 15.0651 9.02629 15.0651C5.70324 15.0651 3.287 13.5918 3.287 11.4579V11.0476C3.287 10.5909 3.4684 10.153 3.7913 9.83007C4.1142 9.50717 4.55214 9.32577 5.00879 9.32577H13.0438ZM13.0438 10.1867H5.00879C4.79487 10.1867 4.58861 10.2663 4.43021 10.4101C4.2718 10.5538 4.17259 10.7514 4.15191 10.9643L4.1479 11.0476V11.4579C4.1479 12.9926 6.09294 14.2042 9.02629 14.2042C11.8535 14.2042 13.8215 12.996 13.9018 11.5503L13.9047 11.4579V11.0476C13.9047 10.8336 13.825 10.6274 13.6813 10.469C13.5375 10.3106 13.3399 10.2114 13.127 10.1907L13.0438 10.1867ZM9.02629 1.29077C9.4785 1.29077 9.92629 1.37984 10.3441 1.5529C10.7619 1.72595 11.1415 1.9796 11.4613 2.29937C11.781 2.61914 12.0347 2.99875 12.2077 3.41654C12.3808 3.83434 12.4699 4.28213 12.4699 4.73434C12.4699 5.18656 12.3808 5.63435 12.2077 6.05214C12.0347 6.46993 11.781 6.84955 11.4613 7.16932C11.1415 7.48908 10.7619 7.74273 10.3441 7.91579C9.92629 8.08884 9.4785 8.17791 9.02629 8.17791C8.113 8.17791 7.23711 7.81511 6.59132 7.16932C5.94552 6.52352 5.58272 5.64763 5.58272 4.73434C5.58272 3.82105 5.94552 2.94517 6.59132 2.29937C7.23711 1.65358 8.113 1.29077 9.02629 1.29077ZM9.02629 2.15166C8.34132 2.15166 7.6844 2.42377 7.20006 2.90811C6.71571 3.39246 6.44361 4.04937 6.44361 4.73434C6.44361 5.41931 6.71571 6.07623 7.20006 6.56057C7.6844 7.04492 8.34132 7.31702 9.02629 7.31702C9.71126 7.31702 10.3682 7.04492 10.8525 6.56057C11.3369 6.07623 11.609 5.41931 11.609 4.73434C11.609 4.04937 11.3369 3.39246 10.8525 2.90811C10.3682 2.42377 9.71126 2.15166 9.02629 2.15166Z" fill="white"/>
</svg>
