<svg width="18" height="17" viewBox="0 0 18 17" fill="none" xmlns="http://www.w3.org/2000/svg">
<g clip-path="url(#clip0_11_211)">
<path d="M15.0525 7.59891C15.0525 11.3151 12.4813 14.7902 9.02628 15.6339C5.57123 14.7902 3.00003 11.3151 3.00003 7.59891V3.58141L9.02628 0.903076L15.0525 3.58141V7.59891ZM9.02628 14.2947C11.5372 13.6252 13.7134 10.6388 13.7134 7.74622V4.45187L9.02628 2.36277L4.3392 4.45187V7.74622C4.3392 10.6388 6.51534 13.6252 9.02628 14.2947ZM10.9011 7.59891V6.59453C10.9011 5.65712 9.9637 4.92058 9.02628 4.92058C8.08886 4.92058 7.15145 5.65712 7.15145 6.59453V7.59891C6.7497 7.59891 6.34795 8.00066 6.34795 8.40241V10.746C6.34795 11.2147 6.7497 11.6164 7.15145 11.6164H10.8342C11.3029 11.6164 11.7046 11.2147 11.7046 10.8129V8.46937C11.7046 8.00066 11.3029 7.59891 10.9011 7.59891ZM10.0307 7.59891H8.02191V6.59453C8.02191 6.05887 8.49061 5.72408 9.02628 5.72408C9.56195 5.72408 10.0307 6.05887 10.0307 6.59453V7.59891Z" fill="white"/>
</g>
<defs>
<clipPath id="clip0_11_211">
<rect width="16.07" height="16.07" fill="white" transform="translate(0.991287 0.233521)"/>
</clipPath>
</defs>
</svg>
