<svg width="18" height="17" viewBox="0 0 18 17" fill="none" xmlns="http://www.w3.org/2000/svg">
<path d="M4.30267 4.83004H4.97225C5.32742 4.83004 5.66804 4.68895 5.91918 4.43781C6.17033 4.18666 6.31142 3.84604 6.31142 3.49087C6.31142 3.31329 6.38196 3.14298 6.50753 3.01741C6.63311 2.89183 6.80342 2.82129 6.981 2.82129H10.9985C11.1761 2.82129 11.3464 2.89183 11.472 3.01741C11.5975 3.14298 11.6681 3.31329 11.6681 3.49087C11.6681 3.84604 11.8092 4.18666 12.0603 4.43781C12.3115 4.68895 12.6521 4.83004 13.0073 4.83004H13.6768C14.032 4.83004 14.3726 4.97113 14.6238 5.22227C14.8749 5.47341 15.016 5.81404 15.016 6.16921V12.1955C15.016 12.5506 14.8749 12.8912 14.6238 13.1424C14.3726 13.3935 14.032 13.5346 13.6768 13.5346H4.30267C3.9475 13.5346 3.60688 13.3935 3.35573 13.1424C3.10459 12.8912 2.9635 12.5506 2.9635 12.1955V6.16921C2.9635 5.81404 3.10459 5.47341 3.35573 5.22227C3.60688 4.97113 3.9475 4.83004 4.30267 4.83004Z" stroke="white" stroke-width="1.5" stroke-linecap="round" stroke-linejoin="round"/>
<path d="M7.31581 10.1868C7.53401 10.4095 7.79446 10.5864 8.0819 10.7072C8.36934 10.8279 8.67798 10.8902 8.98977 10.8902C9.30155 10.8902 9.6102 10.8279 9.89764 10.7072C10.1851 10.5864 10.4455 10.4095 10.6637 10.1868M10.9985 7.50842H11.0052M6.98102 7.50842H6.98771" stroke="white" stroke-width="1.5" stroke-linecap="round" stroke-linejoin="round"/>
</svg>
