<svg width="18" height="17" viewBox="0 0 18 17" fill="none" xmlns="http://www.w3.org/2000/svg">
<path d="M8.98835 1.57251C5.29692 1.57251 2.2937 4.57573 2.2937 8.26716V11.0408C2.2937 11.7263 2.89421 12.2839 3.63263 12.2839H4.3021C4.47965 12.2839 4.64993 12.2134 4.77548 12.0879C4.90103 11.9623 4.97156 11.792 4.97156 11.6145V8.17143C4.97156 7.99387 4.90103 7.82359 4.77548 7.69804C4.64993 7.57249 4.47965 7.50196 4.3021 7.50196H3.69422C4.06644 4.91113 6.29576 2.91144 8.98835 2.91144C11.6809 2.91144 13.9103 4.91113 14.2825 7.50196H13.6746C13.4971 7.50196 13.3268 7.57249 13.2012 7.69804C13.0757 7.82359 13.0051 7.99387 13.0051 8.17143V12.2839C13.0051 13.0224 12.4046 13.6229 11.6662 13.6229H10.3273V12.9534H7.64942V14.9618H11.6662C13.1431 14.9618 14.3441 13.7608 14.3441 12.2839C15.0825 12.2839 15.683 11.7263 15.683 11.0408V8.26716C15.683 4.57573 12.6798 1.57251 8.98835 1.57251Z" fill="white"/>
</svg>
