<svg width="139" height="36" viewBox="0 0 139 36" fill="none" xmlns="http://www.w3.org/2000/svg">
<path d="M3.46355 32.9626H33.3886V3.0376H3.46355V32.9626ZM27.6287 15.1208H21.3054V8.79743H27.6287V15.1208ZM9.22221 8.79743H15.5491V20.8794H27.6287V27.2028H9.22221V8.79743ZM52.8754 3.0376C49.916 3.0376 47.0232 3.91514 44.5627 5.55924C42.102 7.20335 40.1843 9.54017 39.0518 12.2742C37.9193 15.0083 37.6231 18.0167 38.2004 20.9191C38.7777 23.8215 40.2027 26.4876 42.2952 28.5801C44.3878 30.6728 47.0538 32.0978 49.9563 32.6751C52.8588 33.2524 55.8672 32.9562 58.6013 31.8237C61.3354 30.6912 63.6721 28.7735 65.3163 26.3128C66.9603 23.8522 67.8379 20.9594 67.8379 18.0001C67.8332 14.0332 66.2553 10.2301 63.4503 7.42514C60.6453 4.62012 56.8423 3.04223 52.8754 3.0376ZM52.8754 27.2028C51.0553 27.2028 49.276 26.6631 47.7626 25.6518C46.2493 24.6407 45.0697 23.2034 44.3732 21.5218C43.6767 19.8403 43.4945 17.9899 43.8495 16.2047C44.2046 14.4196 45.0811 12.7799 46.3681 11.4928C47.6551 10.2058 49.2949 9.32935 51.08 8.97426C52.8651 8.61918 54.7155 8.80142 56.3971 9.49795C58.0786 10.1945 59.5159 11.374 60.5271 12.8874C61.5384 14.4007 62.0781 16.18 62.0781 18.0001C62.0743 20.4397 61.1035 22.7783 59.3785 24.5033C57.6535 26.2284 55.3149 27.199 52.8754 27.2028ZM121.381 3.0376C118.421 3.03738 115.529 3.91471 113.068 5.55867C110.607 7.20263 108.689 9.53937 107.556 12.2734C106.424 15.0074 106.127 18.016 106.705 20.9184C107.282 23.821 108.707 26.4871 110.799 28.5798C112.892 30.6724 115.558 32.0976 118.461 32.675C121.362 33.2524 124.371 32.9562 127.106 31.8238C129.839 30.6913 132.176 28.7736 133.82 26.313C135.465 23.8523 136.342 20.9595 136.342 18.0001C136.338 14.0334 134.76 10.2305 131.956 7.42555C129.151 4.62057 125.348 3.04254 121.381 3.0376ZM121.381 27.2028C119.561 27.203 117.782 26.6634 116.268 25.6524C114.754 24.6414 113.575 23.2041 112.878 21.5226C112.181 19.8411 111.999 17.9907 112.354 16.2054C112.709 14.4203 113.585 12.7804 114.872 11.4932C116.159 10.2061 117.799 9.32953 119.584 8.97435C121.369 8.61917 123.22 8.80134 124.901 9.49784C126.583 10.1943 128.02 11.3739 129.032 12.8873C130.042 14.4007 130.582 16.18 130.582 18.0001C130.579 20.4395 129.608 22.7778 127.883 24.5029C126.158 26.2279 123.82 27.1988 121.381 27.2028ZM87.1275 3.0376C84.1682 3.0376 81.2753 3.91514 78.8148 5.55924C76.3542 7.20335 74.4364 9.54017 73.304 12.2742C72.1715 15.0083 71.8753 18.0167 72.4525 20.9191C73.0299 23.8215 74.4549 26.4876 76.5474 28.5801C78.6399 30.6728 81.306 32.0978 84.2084 32.6751C87.1109 33.2524 90.1193 32.9562 92.8534 31.8237C95.5875 30.6912 97.9242 28.7735 99.5684 26.3128C101.212 23.8522 102.09 20.9594 102.09 18.0001C102.085 14.0332 100.507 10.2301 97.7025 7.42514C94.8974 4.62012 91.0945 3.04223 87.1275 3.0376ZM87.1275 27.2028C85.4317 27.2036 83.7687 26.7359 82.3219 25.8512C80.8753 24.9665 79.701 23.6994 78.929 22.1895C78.1572 20.6796 77.8173 18.9857 77.9473 17.295C78.0773 15.6041 78.6718 13.9821 79.6654 12.6079C80.6591 11.2337 82.0131 10.1608 83.578 9.50759C85.1429 8.85437 86.8579 8.64626 88.5336 8.90621C90.2094 9.16618 91.7807 9.8841 93.0742 10.9808C94.3676 12.0774 95.3329 13.5102 95.8635 15.1208H87.1275V20.8794H95.8635C95.2558 22.7173 94.085 24.3173 92.5169 25.4522C90.9489 26.5872 89.0633 27.1996 87.1275 27.2028Z" fill="#394149"/>
</svg>
