<svg width="135" height="36" viewBox="0 0 135 36" fill="none" xmlns="http://www.w3.org/2000/svg">
<path d="M11.827 32.2476L8.66486 26.7707L13.3054 18.7551L16.2543 23.8631L33.6621 23.8538L28.7225 32.3233L11.827 32.2476Z" fill="#FFAD64"/>
<path d="M36.7706 18.4153L33.6085 23.8921L24.3466 23.8812L27.2957 18.7733L18.5837 3.70239L28.3883 3.74541L36.7706 18.4153Z" fill="#ADD4D3"/>
<path d="M12.3143 3.67334H18.6385L23.26 11.7001L17.3618 11.6998L8.66607 26.7801L3.80099 18.2676L12.3143 3.67334Z" fill="#FB8351"/>
<path fill-rule="evenodd" clip-rule="evenodd" d="M19.4095 2.40527L19.3906 2.37256H11.5672L2.29892 18.261L8.66108 29.393L8.66889 29.3795L11.0741 33.5453L29.4679 33.6276L35.9275 22.5518H35.8845L38.2707 18.4187L29.145 2.44798L19.4095 2.40527ZM25.4614 13.0009H25.5102L20.9113 5.01366L27.6314 5.04313L35.2703 18.412L32.8793 22.5535L26.6134 22.5568L28.7981 18.773L25.4614 13.0009ZM17.8163 4.97428L20.9521 10.3991L16.6104 10.399L9.17721 23.2896L8.67017 24.1654L5.30324 18.2743L13.0616 4.97428H17.8163ZM14.8014 18.7444L18.1133 13.0007L22.4562 13.0009L25.7933 18.7738L23.6081 22.5585L17.0053 22.5621L14.8014 18.7444ZM10.1701 26.7761L11.4301 24.591L13.3038 21.3544L15.5035 25.1646L22.1054 25.161L22.0947 25.1795L31.3767 25.1905L27.9773 31.0192L12.58 30.9503L10.1701 26.7761Z" fill="#333237"/>
<path d="M85.6557 11.8934C86.5466 11.8934 87.2704 11.1695 87.2704 10.26C87.2704 9.35056 86.5466 8.64526 85.6557 8.64526C84.7463 8.64526 84.0223 9.35056 84.0223 10.26C84.0223 11.1695 84.7463 11.8934 85.6557 11.8934ZM84.2079 22.6214H87.0848V13.3411H84.2079V22.6214Z" fill="#FB8351"/>
<path d="M88.7595 27.0758H91.5808V21.6932C92.119 22.3986 93.344 22.8811 94.6247 22.8811C97.3902 22.8811 99.0607 20.7652 98.9868 17.8326C98.912 14.8443 97.186 13.0439 94.6061 13.0439C93.2883 13.0439 92.0447 13.6193 91.525 14.4731L91.3766 13.341H88.7595V27.0758ZM91.6364 17.9811C91.6364 16.5891 92.5644 15.6611 93.9008 15.6611C95.2558 15.6611 96.1096 16.6076 96.1096 17.9811C96.1096 19.3545 95.2558 20.3012 93.9008 20.3012C92.5644 20.3012 91.6364 19.3731 91.6364 17.9811Z" fill="#FB8351"/>
<path d="M99.2912 19.6887C99.3651 21.5633 100.851 22.8625 103.189 22.8625C105.435 22.8625 106.994 21.6747 106.994 19.7629C106.994 18.3894 106.177 17.48 104.655 17.1087L103.003 16.7004C102.409 16.5519 102.038 16.4035 102.038 15.9208C102.038 15.4383 102.428 15.1228 103.003 15.1228C103.653 15.1228 104.079 15.5497 104.061 16.1807H106.641C106.567 14.2504 105.1 13.0439 103.059 13.0439C100.998 13.0439 99.4584 14.2689 99.4584 16.125C99.4584 17.3686 100.145 18.3894 101.982 18.872L103.616 19.2989C104.098 19.4288 104.302 19.6516 104.302 19.967C104.302 20.4311 103.875 20.7281 103.152 20.7281C102.317 20.7281 101.871 20.3383 101.871 19.6887H99.2912Z" fill="#FB8351"/>
<path d="M111.369 22.8626C112.501 22.8626 113.633 22.343 114.209 21.582L114.395 22.6213H117.086V13.3411H114.227V18.1668C114.227 19.5588 113.819 20.3199 112.501 20.3199C111.48 20.3199 110.812 19.8558 110.812 18.1296V13.3411H107.954V19.1691C107.954 21.3778 109.179 22.8626 111.369 22.8626Z" fill="#FB8351"/>
<path d="M121.618 22.6212V17.5542C121.618 15.9951 122.453 15.5497 123.27 15.5497C124.18 15.5497 124.774 16.1065 124.774 17.2573V22.6212H127.595V17.5542C127.595 15.9766 128.411 15.5311 129.228 15.5311C130.138 15.5311 130.75 16.0879 130.75 17.2573V22.6212H133.534V16.5519C133.534 14.436 132.421 13.0254 130.026 13.0254C128.69 13.0254 127.595 13.675 127.112 14.6773C126.555 13.675 125.591 13.0254 124.05 13.0254C123.029 13.0254 122.082 13.4894 121.526 14.2318L121.414 13.341H118.741V22.6212H121.618Z" fill="#FB8351"/>
<path d="M46.4539 8.88794H43.41V22.6228H51.8365V19.9315H46.4539V8.88794Z" fill="#333237"/>
<path d="M52.1272 17.9641C52.1272 20.8966 54.0947 22.8455 57.0643 22.8455C60.0155 22.8455 61.9829 20.8966 61.9829 17.9641C61.9829 15.0315 60.0155 13.064 57.0643 13.064C54.0947 13.064 52.1272 15.0315 52.1272 17.9641ZM55.0041 17.9455C55.0041 16.5534 55.8208 15.6254 57.0643 15.6254C58.2893 15.6254 59.106 16.5534 59.106 17.9455C59.106 19.3561 58.2893 20.2841 57.0643 20.2841C55.8208 20.2841 55.0041 19.3561 55.0041 17.9455Z" fill="#333237"/>
<path d="M62.4427 17.8154C62.4427 20.6182 64.2617 22.5113 66.8416 22.5113C68.0852 22.5113 69.1617 22.0659 69.6999 21.342V22.6227C69.6999 23.9034 68.9018 24.7571 67.4912 24.7571C66.2291 24.7571 65.3567 24.1632 65.301 23.1052H62.4056C62.6654 25.648 64.6329 27.3557 67.3242 27.3557C70.498 27.3557 72.5026 25.2954 72.5026 22.0288V13.3423H69.9227L69.7742 14.289C69.2545 13.5279 68.1594 13.0269 66.8973 13.0269C64.2987 13.0269 62.4427 14.9757 62.4427 17.8154ZM65.3382 17.7413C65.3382 16.4048 66.2291 15.514 67.3613 15.514C68.6791 15.514 69.6442 16.3863 69.6442 17.7413C69.6442 19.0961 68.6977 20.0241 67.3798 20.0241C66.2477 20.0241 65.3382 19.0961 65.3382 17.7413Z" fill="#333237"/>
<path d="M73.3356 17.9641C73.3356 20.8966 75.303 22.8455 78.2728 22.8455C81.2239 22.8455 83.1913 20.8966 83.1913 17.9641C83.1913 15.0315 81.2239 13.064 78.2728 13.064C75.303 13.064 73.3356 15.0315 73.3356 17.9641ZM76.2125 17.9455C76.2125 16.5534 77.0292 15.6254 78.2728 15.6254C79.4978 15.6254 80.3144 16.5534 80.3144 17.9455C80.3144 19.3561 79.4978 20.2841 78.2728 20.2841C77.0292 20.2841 76.2125 19.3561 76.2125 17.9455Z" fill="#333237"/>
</svg>
