<svg width="200" height="36" viewBox="0 0 200 36" fill="none" xmlns="http://www.w3.org/2000/svg">
<g clip-path="url(#clip0_7_57)">
<path d="M30.0126 27.3262H40.3767L14.7029 1.65234H4.33875L30.0126 27.3262Z" fill="#7476ED"/>
<path d="M20.0274 1.65235L44.7766 26.4015V1.65234H38.079V9.46611L30.2652 1.65234L20.0274 1.65235Z" fill="#E56F8C"/>
<path d="M0 2.51172V27.326H6.69754V19.5122L14.5113 27.326H24.8144L0 2.51172Z" fill="#64C2DB"/>
<path d="M60.9387 23.4656H66.9396V27.0019H56.3575V8.19531H60.9387V23.4656Z" fill="#3A3B7B"/>
<path d="M75.1256 27.2164C73.6611 27.2164 72.3394 26.9039 71.1607 26.2787C69.9997 25.6536 69.08 24.7606 68.4012 23.5998C67.7405 22.4388 67.4101 21.0814 67.4101 19.5276C67.4101 17.9917 67.7493 16.6432 68.4281 15.4824C69.1068 14.3035 70.0355 13.4016 71.2142 12.7765C72.3931 12.1514 73.7146 11.8389 75.1792 11.8389C76.6437 11.8389 77.9653 12.1514 79.1442 12.7765C80.3229 13.4016 81.2516 14.3035 81.9303 15.4824C82.609 16.6432 82.9483 17.9917 82.9483 19.5276C82.9483 21.0636 82.6001 22.4209 81.9035 23.5998C81.2249 24.7606 80.2871 25.6536 79.0905 26.2787C77.9118 26.9039 76.5901 27.2164 75.1256 27.2164ZM75.1256 23.2514C76.0008 23.2514 76.742 22.93 77.3492 22.287C77.9743 21.644 78.2868 20.7243 78.2868 19.5276C78.2868 18.331 77.9832 17.4112 77.376 16.7683C76.7866 16.1253 76.0543 15.8038 75.1792 15.8038C74.2862 15.8038 73.5449 16.1253 72.9557 16.7683C72.3662 17.3934 72.0716 18.3132 72.0716 19.5276C72.0716 20.7243 72.3573 21.644 72.9288 22.287C73.5182 22.93 74.2505 23.2514 75.1256 23.2514Z" fill="#3A3B7B"/>
<path d="M90.2545 11.8389C91.3083 11.8389 92.2281 12.0532 93.0139 12.4818C93.8176 12.9105 94.4338 13.4731 94.8624 14.1696V12.0532H99.4435V26.9753C99.4435 28.3506 99.1667 29.5918 98.613 30.6991C98.0773 31.8242 97.2467 32.7173 96.1215 33.3781C95.0142 34.039 93.63 34.3694 91.9691 34.3694C89.7544 34.3694 87.9595 33.8425 86.5843 32.7887C85.2091 31.7528 84.4232 30.3419 84.2267 28.5559H88.7543C88.8971 29.1274 89.2365 29.5739 89.7723 29.8954C90.3082 30.2347 90.9689 30.4044 91.7548 30.4044C92.7014 30.4044 93.4514 30.1277 94.0052 29.5739C94.5766 29.0381 94.8624 28.1719 94.8624 26.9753V24.8589C94.4159 25.5554 93.7997 26.1269 93.0139 26.5735C92.2281 27.002 91.3083 27.2164 90.2545 27.2164C89.0222 27.2164 87.9059 26.9039 86.9058 26.2787C85.9056 25.6357 85.1108 24.7339 84.5215 23.5729C83.95 22.3942 83.6641 21.0369 83.6641 19.5009C83.6641 17.9649 83.95 16.6165 84.5215 15.4555C85.1108 14.2947 85.9056 13.4016 86.9058 12.7765C87.9059 12.1514 89.0222 11.8389 90.2545 11.8389ZM94.8624 19.5276C94.8624 18.3846 94.541 17.4827 93.898 16.8218C93.2729 16.161 92.5049 15.8305 91.5941 15.8305C90.6832 15.8305 89.9063 16.161 89.2633 16.8218C88.6381 17.4648 88.3256 18.3578 88.3256 19.5009C88.3256 20.6439 88.6381 21.5547 89.2633 22.2335C89.9063 22.8943 90.6832 23.2246 91.5941 23.2246C92.5049 23.2246 93.2729 22.8943 93.898 22.2335C94.541 21.5726 94.8624 20.6707 94.8624 19.5276Z" fill="#3A3B7B"/>
<path d="M108.759 27.2164C107.294 27.2164 105.973 26.9039 104.794 26.2787C103.633 25.6536 102.713 24.7606 102.034 23.5998C101.374 22.4388 101.043 21.0814 101.043 19.5276C101.043 17.9917 101.383 16.6432 102.061 15.4824C102.74 14.3035 103.669 13.4016 104.847 12.7765C106.026 12.1514 107.348 11.8389 108.812 11.8389C110.277 11.8389 111.599 12.1514 112.777 12.7765C113.956 13.4016 114.885 14.3035 115.563 15.4824C116.242 16.6432 116.582 17.9917 116.582 19.5276C116.582 21.0636 116.233 22.4209 115.537 23.5998C114.858 24.7606 113.92 25.6536 112.724 26.2787C111.545 26.9039 110.223 27.2164 108.759 27.2164ZM108.759 23.2514C109.634 23.2514 110.375 22.93 110.982 22.287C111.608 21.644 111.92 20.7243 111.92 19.5276C111.92 18.331 111.616 17.4112 111.009 16.7683C110.42 16.1253 109.688 15.8038 108.812 15.8038C107.919 15.8038 107.178 16.1253 106.589 16.7683C105.999 17.3934 105.705 18.3132 105.705 19.5276C105.705 20.7243 105.991 21.644 106.562 22.287C107.151 22.93 107.884 23.2514 108.759 23.2514Z" fill="#3A3B7B"/>
<path d="M120.512 10.4994C119.708 10.4994 119.048 10.2672 118.53 9.80284C118.03 9.32062 117.78 8.73125 117.78 8.03469C117.78 7.32029 118.03 6.73091 118.53 6.26655C119.048 5.78432 119.708 5.54321 120.512 5.54321C121.298 5.54321 121.941 5.78432 122.441 6.26655C122.959 6.73091 123.218 7.32029 123.218 8.03469C123.218 8.73125 122.959 9.32062 122.441 9.80284C121.941 10.2672 121.298 10.4994 120.512 10.4994ZM122.789 12.0532V27.0021H118.208V12.0532H122.789Z" fill="#3A3B7B"/>
<path d="M129.886 14.1696C130.333 13.4731 130.949 12.9105 131.735 12.4818C132.52 12.0532 133.441 11.8389 134.495 11.8389C135.727 11.8389 136.843 12.1514 137.843 12.7765C138.844 13.4016 139.629 14.2947 140.201 15.4555C140.791 16.6165 141.085 17.9649 141.085 19.5009C141.085 21.0369 140.791 22.3942 140.201 23.5729C139.629 24.7339 138.844 25.6357 137.843 26.2787C136.843 26.9039 135.727 27.2164 134.495 27.2164C133.459 27.2164 132.538 27.002 131.735 26.5735C130.949 26.1448 130.333 25.5911 129.886 24.9124V34.1283H125.305V12.0532H129.886V14.1696ZM136.423 19.5009C136.423 18.3578 136.102 17.4648 135.459 16.8218C134.834 16.161 134.056 15.8305 133.128 15.8305C132.217 15.8305 131.441 16.161 130.798 16.8218C130.173 17.4827 129.86 18.3846 129.86 19.5276C129.86 20.6707 130.173 21.5726 130.798 22.2335C131.441 22.8943 132.217 23.2246 133.128 23.2246C134.04 23.2246 134.816 22.8943 135.459 22.2335C136.102 21.5547 136.423 20.6439 136.423 19.5009Z" fill="#3A3B7B"/>
<path d="M148.766 27.2164C147.462 27.2164 146.301 26.9932 145.284 26.5466C144.265 26.1002 143.461 25.4929 142.873 24.7249C142.283 23.9391 141.952 23.0639 141.881 22.0994H146.409C146.462 22.6174 146.703 23.0372 147.132 23.3587C147.56 23.6801 148.088 23.8409 148.712 23.8409C149.284 23.8409 149.721 23.7337 150.026 23.5194C150.347 23.2872 150.508 22.9924 150.508 22.6353C150.508 22.2066 150.284 21.8941 149.838 21.6976C149.39 21.4833 148.667 21.2511 147.668 21.0011C146.596 20.751 145.702 20.492 144.988 20.2242C144.274 19.9384 143.658 19.5009 143.14 18.9114C142.622 18.3043 142.363 17.4916 142.363 16.4735C142.363 15.6163 142.595 14.8394 143.059 14.1428C143.542 13.4284 144.239 12.8658 145.149 12.455C146.078 12.0443 147.176 11.8389 148.444 11.8389C150.32 11.8389 151.794 12.3032 152.865 13.232C153.955 14.1607 154.58 15.393 154.74 16.929H150.508C150.435 16.411 150.203 16.0002 149.81 15.6966C149.436 15.393 148.935 15.2412 148.311 15.2412C147.775 15.2412 147.364 15.3483 147.078 15.5627C146.793 15.7591 146.65 16.036 146.65 16.3931C146.65 16.8218 146.873 17.1433 147.319 17.3576C147.783 17.572 148.499 17.7863 149.463 18.0005C150.57 18.2864 151.472 18.5721 152.168 18.8579C152.865 19.1257 153.472 19.5723 153.99 20.1974C154.526 20.8047 154.802 21.6261 154.821 22.662C154.821 23.5373 154.57 24.3231 154.07 25.0196C153.588 25.6983 152.883 26.2341 151.955 26.627C151.043 27.0199 149.98 27.2164 148.766 27.2164Z" fill="#3A3B7B"/>
<path d="M171.58 12.0532V27.0021H166.999V24.9661C166.535 25.627 165.901 26.1627 165.098 26.5735C164.312 26.9664 163.437 27.1628 162.473 27.1628C161.329 27.1628 160.319 26.9129 159.444 26.4128C158.569 25.8948 157.891 25.1535 157.409 24.1891C156.927 23.2247 156.686 22.0907 156.686 20.7868V12.0532H161.24V20.1706C161.24 21.1708 161.499 21.9477 162.016 22.5013C162.535 23.0551 163.231 23.3319 164.106 23.3319C164.999 23.3319 165.704 23.0551 166.223 22.5013C166.741 21.9477 166.999 21.1708 166.999 20.1706V12.0532H171.58Z" fill="#3A3B7B"/>
<path d="M193.142 11.8923C194.999 11.8923 196.473 12.4549 197.562 13.5801C198.67 14.7052 199.224 16.2681 199.224 18.2684V27.0019H194.669V18.8845C194.669 17.9201 194.411 17.179 193.892 16.661C193.392 16.1252 192.696 15.8573 191.803 15.8573C190.909 15.8573 190.204 16.1252 189.686 16.661C189.187 17.179 188.937 17.9201 188.937 18.8845V27.0019H184.381V18.8845C184.381 17.9201 184.123 17.179 183.605 16.661C183.104 16.1252 182.408 15.8573 181.515 15.8573C180.622 15.8573 179.917 16.1252 179.398 16.661C178.899 17.179 178.649 17.9201 178.649 18.8845V27.0019H174.068V12.0531H178.649V13.9284C179.113 13.3033 179.72 12.8121 180.47 12.4549C181.221 12.0799 182.069 11.8923 183.015 11.8923C184.14 11.8923 185.141 12.1334 186.016 12.6157C186.909 13.0979 187.605 13.7855 188.106 14.6785C188.624 13.8569 189.329 13.1872 190.222 12.6693C191.116 12.1513 192.089 11.8923 193.142 11.8923Z" fill="#3A3B7B"/>
</g>
<defs>
<clipPath id="clip0_7_57">
<rect width="199.63" height="35" fill="white" transform="translate(0 0.5)"/>
</clipPath>
</defs>
</svg>
