<svg width="114" height="36" viewBox="0 0 114 36" fill="none" xmlns="http://www.w3.org/2000/svg">
<g clip-path="url(#clip0_7_72)">
<path d="M80.5397 33.5026C81.2228 33.5026 81.6269 32.9851 81.6269 32.176C81.6269 31.3372 81.1931 30.8494 80.5541 30.8494C80.1887 30.8494 79.9349 31.0114 79.745 31.2688H79.736V29.9431H79.34V33.4288H79.736V33.0976H79.745C79.9502 33.3802 80.1986 33.5026 80.5397 33.5026ZM80.5109 33.1705C79.9745 33.1705 79.7108 32.7466 79.7108 32.1805C79.7108 31.6351 79.9646 31.186 80.5154 31.186C80.9933 31.186 81.2228 31.6153 81.2228 32.1805C81.2228 32.7511 80.9933 33.1705 80.5109 33.1705ZM82.2956 34.2631C82.6025 34.2631 82.7978 34.1551 83.0021 33.6331L84.0803 30.9079H83.6609L83.0849 32.4784C83.0075 32.6881 82.9193 32.9707 82.9193 32.9707H82.9103C82.9103 32.9707 82.8167 32.6881 82.7393 32.4784L82.1444 30.9079H81.7151L82.6997 33.3559L82.6025 33.6043C82.5053 33.8482 82.3928 33.9121 82.2272 33.9121C82.1347 33.9168 82.0425 33.8982 81.959 33.8581H81.9392V34.2091C82.0472 34.2532 82.1444 34.2631 82.2956 34.2631ZM85.091 33.4288H85.7543V29.9431H85.091V33.4288ZM87.3761 33.5026C88.151 33.5026 88.6829 32.9266 88.6829 32.1805C88.6829 31.4344 88.1519 30.8593 87.3761 30.8593C86.6012 30.8593 86.0693 31.4353 86.0693 32.1805C86.0693 32.9275 86.6003 33.5026 87.3761 33.5026ZM87.3761 32.995C86.9666 32.995 86.7425 32.6683 86.7425 32.1805C86.7425 31.6936 86.9666 31.3615 87.3761 31.3615C87.7811 31.3615 88.0097 31.6936 88.0097 32.1805C88.0097 32.6683 87.7811 32.995 87.3761 32.995ZM90.0932 34.282C90.464 34.282 90.7853 34.1947 90.995 33.9994C91.1804 33.8284 91.2929 33.5899 91.2929 33.2389V30.9277H90.6539V31.1914H90.644C90.4928 30.9817 90.2642 30.8593 89.951 30.8593C89.3183 30.8593 88.8692 31.3372 88.8692 32.0833C88.8692 32.8393 89.4155 33.2776 89.9717 33.2776C90.2885 33.2776 90.4784 33.1516 90.6242 32.9851H90.6395V33.2587C90.6395 33.5998 90.4595 33.7807 90.0833 33.7807C89.7764 33.7807 89.6351 33.6583 89.5811 33.5017H88.9232C88.9907 33.9895 89.4101 34.282 90.0932 34.282ZM90.0842 32.7466C89.7422 32.7466 89.5172 32.4982 89.5172 32.0734C89.5172 31.654 89.7422 31.3912 90.0788 31.3912C90.4784 31.3912 90.6737 31.7026 90.6737 32.0689C90.6737 32.4397 90.5027 32.7466 90.0833 32.7466H90.0842ZM92.9048 33.5026C93.6797 33.5026 94.2116 32.9266 94.2116 32.1805C94.2116 31.4344 93.6797 30.8593 92.9048 30.8593C92.129 30.8593 91.598 31.4353 91.598 32.1805C91.598 32.9275 92.129 33.5026 92.9048 33.5026ZM92.9048 32.995C92.4953 32.995 92.2703 32.6683 92.2703 32.1805C92.2703 31.6936 92.4953 31.3615 92.9048 31.3615C93.3089 31.3615 93.5384 31.6936 93.5384 32.1805C93.5384 32.6683 93.3089 32.995 92.9048 32.995ZM94.5194 33.4288H95.1827V30.9277H94.5194V33.4288ZM94.5194 30.538H95.1827V29.9431H94.5194V30.538ZM95.6102 34.2478H96.2735V33.1471H96.2825C96.4247 33.3622 96.6533 33.5035 97.0043 33.5035C97.6478 33.5035 98.087 32.9905 98.087 32.1814C98.087 31.4011 97.6631 30.8602 96.9998 30.8602C96.8552 30.8579 96.7122 30.8914 96.5838 30.9578C96.4553 31.0243 96.3453 31.1215 96.2636 31.2409H96.2492V30.9286H95.6102V34.2496V34.2478ZM96.863 32.9518C96.4679 32.9518 96.2582 32.6539 96.2582 32.2003C96.2582 31.7521 96.4247 31.3957 96.8387 31.3957C97.2482 31.3957 97.4138 31.7269 97.4138 32.2003C97.4138 32.6737 97.1996 32.9518 96.863 32.9518ZM99.41 33.5026C100.034 33.5026 100.463 33.2002 100.463 32.698C100.463 32.113 99.9995 31.996 99.5801 31.9078C99.2246 31.8349 98.8934 31.8151 98.8934 31.6009C98.8934 31.4209 99.0635 31.3219 99.3218 31.3219C99.6053 31.3219 99.7754 31.4209 99.8051 31.6882H100.405C100.356 31.186 99.9905 30.8602 99.3317 30.8602C98.7611 30.8602 98.3129 31.1176 98.3129 31.6594C98.3129 32.2048 98.7512 32.3272 99.2003 32.4154C99.5414 32.4829 99.8582 32.5072 99.8582 32.7466C99.8582 32.9221 99.6926 33.0346 99.4001 33.0346C99.1031 33.0346 98.8979 32.9077 98.8538 32.6197H98.24C98.2787 33.1507 98.6837 33.5026 99.41 33.5026ZM102.981 33.4288V30.9277H102.318V32.3713C102.318 32.7025 102.127 32.9365 101.816 32.9365C101.533 32.9365 101.401 32.7754 101.401 32.4829V30.9277H100.743V32.5954C100.743 33.1417 101.055 33.4972 101.611 33.4972C101.962 33.4972 102.157 33.3658 102.328 33.1372H102.342V33.4288H102.981ZM103.41 33.4288H104.073V31.9771C104.073 31.645 104.253 31.4308 104.521 31.4308C104.765 31.4308 104.906 31.5775 104.906 31.8601V33.4297H105.57V31.9771C105.57 31.645 105.741 31.4308 106.019 31.4308C106.263 31.4308 106.404 31.5775 106.404 31.8601V33.4297H107.067V31.7476C107.067 31.2013 106.769 30.8602 106.243 30.8602C105.926 30.8602 105.662 31.0258 105.492 31.2994H105.482C105.422 31.1666 105.325 31.0542 105.201 30.9762C105.078 30.8981 104.935 30.8578 104.789 30.8602C104.643 30.8565 104.499 30.8922 104.371 30.9634C104.243 31.0347 104.137 31.1389 104.063 31.2652H104.049V30.9286H103.41V33.4306V33.4288Z" fill="#E5708C"/>
<path d="M107.198 1.93407C107.198 0.869369 108.061 0.00536905 109.126 0.00536905H110.412C110.923 0.00536905 111.414 0.208571 111.775 0.570272C112.137 0.931974 112.34 1.42255 112.34 1.93407C112.34 2.44559 112.137 2.93616 111.775 3.29787C111.414 3.65957 110.923 3.86277 110.412 3.86277H109.126C108.872 3.86277 108.622 3.81288 108.388 3.71594C108.154 3.619 107.941 3.47692 107.762 3.29781C107.583 3.1187 107.441 2.90608 107.344 2.67208C107.247 2.43809 107.198 2.18731 107.198 1.93407ZM53.2059 12.861C53.2059 19.9602 47.4513 25.7157 40.3512 25.7157C33.252 25.7157 27.4965 19.9602 27.4965 12.861C27.4965 5.75997 33.252 0.00626905 40.3512 0.00626905C47.4513 0.00626905 53.2059 5.75997 53.2059 12.861ZM24.9891 12.7971C25.7001 12.7971 26.2815 13.3731 26.2104 14.0805C25.9674 16.5013 25.0424 18.8035 23.5428 20.7194C22.0433 22.6354 20.0308 24.0865 17.7393 24.904C15.4478 25.7215 12.9713 25.8719 10.5976 25.3378C8.22398 24.8036 6.05067 23.6067 4.33028 21.8864C2.60989 20.166 1.41306 17.9927 0.878878 15.619C0.344701 13.2454 0.495115 10.7689 1.31264 8.47734C2.13016 6.1858 3.58123 4.17332 5.49718 2.67379C7.41314 1.17425 9.71532 0.249246 12.1362 0.00626905C12.8427 -0.065731 13.4196 0.517469 13.4196 1.22667V11.511C13.4196 12.222 13.9956 12.7971 14.7057 12.7971H24.9891ZM71.2032 28.287C72.226 28.287 73.2069 28.6933 73.9301 29.4165C74.6534 30.1397 75.0597 31.1207 75.0597 32.1435C75.0597 33.1663 74.6534 34.1472 73.9301 34.8704C73.2069 35.5937 72.226 36 71.2032 36H64.7763C63.7535 36 62.7725 35.5937 62.0493 34.8704C61.3261 34.1472 60.9198 33.1663 60.9198 32.1435C60.9198 31.1207 61.3261 30.1397 62.0493 29.4165C62.7725 28.6933 63.7535 28.287 64.7763 28.287H71.2032ZM67.3467 25.7157C74.4468 25.7157 80.2023 19.9602 80.2023 12.861C80.2053 10.6802 79.6511 8.53486 78.5922 6.62847L80.7162 4.50447C80.9608 4.2597 81.1549 3.96914 81.2872 3.64937C81.4196 3.32961 81.4877 2.98691 81.4876 2.64083C81.4875 2.29476 81.4192 1.95209 81.2867 1.63239C81.1542 1.31269 80.96 1.02222 80.7153 0.777569C80.4705 0.532916 80.1799 0.33887 79.8602 0.206511C79.5404 0.0741509 79.1977 0.00606915 78.8516 0.00615273C78.5055 0.00623631 78.1629 0.0744835 77.8432 0.206998C77.5235 0.339512 77.233 0.533698 76.9884 0.778469L75.1344 2.63247C72.8977 0.924184 70.1602 0.000840402 67.3458 0.00536905C60.2475 0.00626905 54.4929 5.75997 54.4929 12.861C54.4929 19.9602 60.2475 25.7157 67.3467 25.7157ZM107.198 12.861C107.198 19.9602 101.442 25.7157 94.3422 25.7157C87.243 25.7157 81.4875 19.9602 81.4875 12.861C81.4875 5.75997 87.243 0.00626905 94.3422 0.00626905C101.442 0.00626905 107.198 5.76087 107.198 12.861Z" fill="url(#paint0_linear_7_72)"/>
</g>
<defs>
<linearGradient id="paint0_linear_7_72" x1="0.564862" y1="14.4" x2="107.665" y2="14.4" gradientUnits="userSpaceOnUse">
<stop stop-color="#64C2DB"/>
<stop offset="0.307" stop-color="#7476ED"/>
<stop offset="0.604" stop-color="#C994DF"/>
<stop offset="1" stop-color="#E56F8C"/>
</linearGradient>
<clipPath id="clip0_7_72">
<rect width="112.5" height="36" fill="white" transform="translate(0.564819)"/>
</clipPath>
</defs>
</svg>
