<svg width="36" height="36" viewBox="0 0 36 36" fill="none" xmlns="http://www.w3.org/2000/svg">
<g clip-path="url(#clip0_7_70)">
<path fill-rule="evenodd" clip-rule="evenodd" d="M9.34723 0.5C14.1797 0.5 18.0972 4.41751 18.0972 9.25V0.5H26.8472C31.6797 0.5 35.5972 4.41751 35.5972 9.25C35.5972 14.0824 31.6797 18 26.8472 18C31.6797 18 35.5972 21.9175 35.5972 26.75C35.5972 29.1495 34.6313 31.3235 33.0672 32.9042L33.0344 32.9372L33.0054 32.9661C31.4243 34.5325 29.2488 35.5 26.8472 35.5C24.4621 35.5 22.2998 34.5456 20.7214 32.9979C20.7009 32.9778 20.6804 32.9575 20.66 32.9372C20.6409 32.918 20.6218 32.8988 20.6028 32.8795C19.0531 31.3008 18.0972 29.137 18.0972 26.75C18.0972 31.5825 14.1797 35.5 9.34723 35.5C4.51474 35.5 0.597229 31.5825 0.597229 26.75V18H9.34723C4.51474 18 0.597229 14.0824 0.597229 9.25C0.597229 4.41751 4.51474 0.5 9.34723 0.5ZM16.3472 9.25C16.3472 13.116 13.2132 16.25 9.34723 16.25V2.25C13.2132 2.25 16.3472 5.38401 16.3472 9.25ZM33.8472 26.75C33.8472 22.884 30.7132 19.75 26.8472 19.75C22.9812 19.75 19.8472 22.884 19.8472 26.75H33.8472ZM2.34723 19.75V26.75C2.34723 30.616 5.48123 33.75 9.34723 33.75C13.2132 33.75 16.3472 30.616 16.3472 26.75V19.75H2.34723ZM19.8472 16.25V2.25H26.8472C30.7132 2.25 33.8472 5.38401 33.8472 9.25C33.8472 13.116 30.7132 16.25 26.8472 16.25H19.8472Z" fill="#5417D7"/>
</g>
<defs>
<clipPath id="clip0_7_70">
<rect width="35" height="35" fill="white" transform="translate(0.597229 0.5)"/>
</clipPath>
</defs>
</svg>
